<svg xmlns="http://www.w3.org/2000/svg" version="1.1" xmlns:xlink="http://www.w3.org/1999/xlink" xmlns:svgjs="http://svgjs.dev/svgjs" viewBox="0 0 12.73343498968347 3.0884129027744485"><g transform="matrix(1,0,0,1,3.3036476755997564,0.5448807234042697)"><g><path d=" M 0.267 1.1669999999999998 L 0.267 0.9029999999999998 L 0.387 0.9029999999999998 L 0.387 0.25949999999999984 L 0.28350000000000003 0.25949999999999984 L 0.252 0.4604999999999998 L 0.0465 0.4604999999999998 L 0.0465 0.0014999999999998348 L 1.143 0.0014999999999998348 L 1.143 0.4604999999999998 L 0.9375 0.4604999999999998 L 0.906 0.25949999999999984 L 0.7995 0.25949999999999984 L 0.7995 0.9029999999999998 L 0.9195 0.9029999999999998 L 0.9195 1.1669999999999998 L 0.267 1.1669999999999998 M 1.269016845703125 1.1669999999999998 L 1.269016845703125 0.9089999999999998 L 1.410016845703125 0.9089999999999998 L 1.410016845703125 0.25949999999999984 L 1.269016845703125 0.25949999999999984 L 1.269016845703125 0.0014999999999998348 L 2.253016845703125 0.0014999999999998348 L 2.253016845703125 0.46499999999999975 L 2.065516845703125 0.46499999999999975 L 1.995016845703125 0.25949999999999984 L 1.785016845703125 0.25949999999999984 L 1.785016845703125 0.44999999999999984 L 1.972516845703125 0.44999999999999984 L 1.972516845703125 0.6419999999999998 L 1.785016845703125 0.6419999999999998 L 1.785016845703125 0.9089999999999998 L 1.995016845703125 0.9089999999999998 L 2.065516845703125 0.6704999999999999 L 2.253016845703125 0.6704999999999999 L 2.253016845703125 1.1669999999999998 L 1.269016845703125 1.1669999999999998 M 2.331028564453125 1.1669999999999998 L 2.331028564453125 0.9089999999999998 L 2.472028564453125 0.9089999999999998 L 2.472028564453125 0.25949999999999984 L 2.331028564453125 0.25949999999999984 L 2.331028564453125 0.0014999999999998348 L 3.315028564453125 0.0014999999999998348 L 3.315028564453125 0.46499999999999975 L 3.127528564453125 0.46499999999999975 L 3.057028564453125 0.25949999999999984 L 2.847028564453125 0.25949999999999984 L 2.847028564453125 0.44999999999999984 L 3.034528564453125 0.44999999999999984 L 3.034528564453125 0.6419999999999998 L 2.847028564453125 0.6419999999999998 L 2.847028564453125 0.9089999999999998 L 3.057028564453125 0.9089999999999998 L 3.127528564453125 0.6704999999999999 L 3.315028564453125 0.6704999999999999 L 3.315028564453125 1.1669999999999998 L 2.331028564453125 1.1669999999999998 M 3.6802902832031252 1.16325 Q 3.627040283203125 1.1369999999999998 3.592540283203125 1.0949999999999998 L 3.565540283203125 1.1759999999999997 L 3.369040283203125 1.1759999999999997 L 3.369040283203125 0.7034999999999998 L 3.580540283203125 0.7034999999999998 Q 3.580540283203125 0.8099999999999998 3.600040283203125 0.8594999999999998 Q 3.619540283203125 0.9089999999999998 3.679540283203125 0.9089999999999998 Q 3.730540283203125 0.9089999999999998 3.761290283203125 0.8609999999999998 Q 3.792040283203125 0.8129999999999998 3.792040283203125 0.7484999999999998 L 3.792040283203125 0.25949999999999984 L 3.651040283203125 0.25949999999999984 L 3.651040283203125 -2.220446049250313e-16 L 4.284040283203125 -2.220446049250313e-16 L 4.284040283203125 0.25949999999999984 L 4.167040283203125 0.25949999999999984 L 4.167040283203125 0.8189999999999997 Q 4.167040283203125 0.9884999999999998 4.069540283203125 1.0889999999999997 Q 3.9720402832031247 1.1894999999999998 3.802540283203125 1.1894999999999998 Q 3.733540283203125 1.1894999999999998 3.6802902832031252 1.16325 M 4.3485849609375 1.1669999999999998 L 4.3485849609375 0.9089999999999998 L 4.4640849609375 0.9089999999999998 L 4.6650849609375005 0.25949999999999984 L 4.5120849609375 0.25949999999999984 L 4.5120849609375 0.0014999999999998348 L 5.2380849609375 0.0014999999999998348 L 5.4975849609375 0.9089999999999998 L 5.6130849609375 0.9089999999999998 L 5.6130849609375 1.1669999999999998 L 4.9575849609375 1.1669999999999998 L 4.9575849609375 0.9089999999999998 L 5.0520849609375 0.9089999999999998 L 5.0205849609375 0.7844999999999998 L 4.7565849609375 0.7844999999999998 L 4.7235849609375 0.9089999999999998 L 4.8630849609375 0.9089999999999998 L 4.8630849609375 1.1669999999999998 L 4.3485849609375 1.1669999999999998 M 4.7940849609375 0.6074999999999998 L 4.9860849609375 0.6074999999999998 L 4.9005849609375005 0.25049999999999983 L 4.7940849609375 0.6074999999999998 M 5.91909814453125 1.1669999999999998 L 5.91909814453125 0.9044999999999999 L 6.03159814453125 0.9044999999999999 L 6.03159814453125 0.6899999999999997 L 5.72409814453125 0.25949999999999984 L 5.64159814453125 0.25949999999999984 L 5.64159814453125 0.0014999999999998348 L 6.26559814453125 0.0014999999999998348 L 6.26559814453125 0.25949999999999984 L 6.19959814453125 0.25949999999999984 L 6.33309814453125 0.4544999999999998 L 6.43809814453125 0.25949999999999984 L 6.33159814453125 0.25949999999999984 L 6.33159814453125 0.0014999999999998348 L 6.7980981445312505 0.0014999999999998348 L 6.7980981445312505 0.25949999999999984 L 6.66609814453125 0.25949999999999984 L 6.43959814453125 0.6509999999999998 L 6.43959814453125 0.9044999999999999 L 6.55509814453125 0.9044999999999999 L 6.55509814453125 1.1669999999999998 L 5.91909814453125 1.1669999999999998" fill="#ff6b00" fill-rule="nonzero"></path></g><g><path d=" M 0.2583451704545454 1.998651455965909 Q 0.2676669034090909 1.998651455965909 0.27286044034090906 1.9918599076704544 Q 0.27805397727272724 1.9850683593749998 0.27805397727272724 1.9762792968749998 Q 0.27805397727272724 1.966424893465909 0.2735262784090909 1.959100674715909 Q 0.26899857954545453 1.951776455965909 0.2588778409090909 1.951776455965909 L 0.1776455965909091 1.951776455965909 L 0.1776455965909091 1.7898446377840909 L 0.26819957386363635 1.7898446377840909 L 0.2817826704545454 1.8393829900568182 Q 0.28391335227272724 1.8468403764204544 0.2893732244318182 1.852167080965909 Q 0.29483309659090906 1.8574937855113636 0.3030894886363636 1.8574937855113636 Q 0.31214488636363635 1.8574937855113636 0.3169389204545454 1.851501242897727 Q 0.32173295454545453 1.8455087002840909 0.32173295454545453 1.8361869673295454 L 0.31800426136363635 1.7696031605113636 L 0.32173295454545453 1.7051500355113636 Q 0.32173295454545453 1.6958283025568182 0.3169389204545454 1.6898357599431817 Q 0.31214488636363635 1.6838432173295454 0.3030894886363636 1.6838432173295454 Q 0.29483309659090906 1.6838432173295454 0.2893732244318182 1.689169921875 Q 0.28391335227272724 1.6944966264204544 0.2817826704545454 1.7019540127840909 L 0.26819957386363635 1.7514923650568182 L 0.1776455965909091 1.7514923650568182 L 0.1776455965909091 1.5890278764204544 L 0.4106889204545454 1.5890278764204544 L 0.4341264204545454 1.6572096946022725 Q 0.4375887784090909 1.665466086647727 0.44451349431818177 1.6714586292613636 Q 0.4514382102272727 1.677451171875 0.4612926136363636 1.677451171875 Q 0.4698153409090909 1.677451171875 0.4754083806818181 1.671991299715909 Q 0.4810014204545454 1.6665314275568182 0.4810014204545454 1.6577423650568182 Q 0.4810014204545454 1.6556116832386363 0.48060191761363635 1.652948330965909 Q 0.48020241477272724 1.6502849786931817 0.47940340909090906 1.6473552911931817 L 0.45916193181818177 1.562927024147727 Q 0.45596590909090906 1.5536052911931817 0.4514382102272727 1.5478790838068182 Q 0.44691051136363635 1.5421528764204544 0.4373224431818182 1.5421528764204544 L 0.05113636363636363 1.5421528764204544 Q 0.04181463068181818 1.5421528764204544 0.03662109375 1.548944424715909 Q 0.031427556818181816 1.5557359730113636 0.031427556818181816 1.5645250355113636 Q 0.031427556818181816 1.5743794389204544 0.03595525568181818 1.5817036576704544 Q 0.040482954545454544 1.5890278764204544 0.05060369318181818 1.5890278764204544 L 0.11558948863636363 1.5890278764204544 L 0.11558948863636363 1.951776455965909 L 0.028764204545454544 1.951776455965909 Q 0.018643465909090908 1.951776455965909 0.014115767045454544 1.959100674715909 Q 0.00958806818181818 1.966424893465909 0.00958806818181818 1.9762792968749998 Q 0.00958806818181818 1.9850683593749998 0.014781605113636362 1.9918599076704544 Q 0.019975142045454544 1.998651455965909 0.029296874999999997 1.998651455965909 L 0.2583451704545454 1.998651455965909 M 0.7264293323863635 2.005309836647727 Q 0.6465287642045454 2.005309836647727 0.5956587357954545 1.9609650213068182 Q 0.5447887073863636 1.916620205965909 0.5447887073863636 1.8377849786931817 L 0.5447887073863636 1.5890278764204544 L 0.5045720880681818 1.5890278764204544 Q 0.4944513494318181 1.5890278764204544 0.48992365056818177 1.5817036576704544 Q 0.4853959517045454 1.5743794389204544 0.4853959517045454 1.5645250355113636 Q 0.4853959517045454 1.5557359730113636 0.4905894886363636 1.548944424715909 Q 0.49578302556818177 1.5421528764204544 0.5051047585227273 1.5421528764204544 L 0.66064453125 1.5421528764204544 Q 0.6699662642045454 1.5421528764204544 0.6750266335227273 1.548944424715909 Q 0.6800870028409091 1.5557359730113636 0.6800870028409091 1.5645250355113636 Q 0.6800870028409091 1.5743794389204544 0.6756924715909091 1.5817036576704544 Q 0.6712979403409091 1.5890278764204544 0.6611772017045454 1.5890278764204544 L 0.6071111505681818 1.5890278764204544 L 0.6071111505681818 1.8377849786931817 Q 0.6071111505681818 1.8945143821022725 0.6381392045454545 1.9260751065340909 Q 0.6691672585227273 1.957635830965909 0.7264293323863635 1.957635830965909 Q 0.7786310369318181 1.957635830965909 0.8099254261363635 1.9240775923295454 Q 0.8412198153409091 1.8905193536931817 0.8412198153409091 1.838317649147727 L 0.8412198153409091 1.5890278764204544 L 0.7903497869318181 1.5890278764204544 Q 0.7802290482954545 1.5890278764204544 0.7757013494318181 1.5817036576704544 Q 0.7711736505681818 1.5743794389204544 0.7711736505681818 1.5645250355113636 Q 0.7711736505681818 1.5557359730113636 0.7763671875 1.548944424715909 Q 0.7815607244318181 1.5421528764204544 0.7908824573863635 1.5421528764204544 L 0.9381658380681818 1.5421528764204544 Q 0.9474875710227272 1.5421528764204544 0.9526811079545454 1.548944424715909 Q 0.9578746448863635 1.5557359730113636 0.9578746448863635 1.5645250355113636 Q 0.9578746448863635 1.5743794389204544 0.9533469460227272 1.5817036576704544 Q 0.9488192471590908 1.5890278764204544 0.9386985085227272 1.5890278764204544 L 0.8923561789772727 1.5890278764204544 L 0.8923561789772727 1.838317649147727 Q 0.8923561789772727 1.9123588423295454 0.8462801846590908 1.9588343394886363 Q 0.8002041903409091 2.005309836647727 0.7264293323863635 2.005309836647727 L 0.7264293323863635 2.005309836647727 M 1.218483664772727 1.5645250355113636 Q 1.218483664772727 1.5743794389204544 1.2139559659090908 1.5817036576704544 Q 1.2094282670454544 1.5890278764204544 1.1993075284090908 1.5890278764204544 L 1.1399147727272725 1.5890278764204544 L 1.1399147727272725 1.951776455965909 L 1.3274147727272725 1.951776455965909 Q 1.3500532670454544 1.951776455965909 1.366432883522727 1.9453844105113636 Q 1.3828124999999998 1.9389923650568182 1.384676846590909 1.9179518821022725 L 1.392400568181818 1.8431116832386363 Q 1.393465909090909 1.8343226207386363 1.3991921164772725 1.8303275923295454 Q 1.4049183238636362 1.8263325639204544 1.4142400568181817 1.8263325639204544 Q 1.4240944602272725 1.8263325639204544 1.4314186789772725 1.831659268465909 Q 1.4387428977272725 1.8369859730113636 1.4387428977272725 1.8476393821022725 L 1.4267578124999998 1.9805406605113636 Q 1.4259588068181817 1.9879980468749998 1.4219637784090908 1.9933247514204544 Q 1.4179687499999998 1.998651455965909 1.4105113636363635 1.998651455965909 L 0.997958096590909 1.998651455965909 Q 0.9886363636363635 1.998651455965909 0.9834428267045453 1.9918599076704544 Q 0.9782492897727272 1.9850683593749998 0.9782492897727272 1.9762792968749998 Q 0.9782492897727272 1.966424893465909 0.9827769886363635 1.959100674715909 Q 0.9873046874999999 1.951776455965909 0.9974254261363635 1.951776455965909 L 1.0775923295454544 1.951776455965909 L 1.0775923295454544 1.5890278764204544 L 1.0139382102272725 1.5890278764204544 Q 1.003817471590909 1.5890278764204544 0.9992897727272726 1.5817036576704544 Q 0.9947620738636362 1.5743794389204544 0.9947620738636362 1.5645250355113636 Q 0.9947620738636362 1.5557359730113636 0.9999556107954544 1.548944424715909 Q 1.0051491477272725 1.5421528764204544 1.0144708806818181 1.5421528764204544 L 1.1987748579545454 1.5421528764204544 Q 1.2080965909090908 1.5421528764204544 1.213290127840909 1.548944424715909 Q 1.218483664772727 1.5557359730113636 1.218483664772727 1.5645250355113636 L 1.218483664772727 1.5645250355113636 M 1.708407315340909 1.5645250355113636 Q 1.708407315340909 1.5743794389204544 1.7038796164772727 1.5817036576704544 Q 1.6993519176136362 1.5890278764204544 1.6892311789772727 1.5890278764204544 L 1.6298384232954544 1.5890278764204544 L 1.6298384232954544 1.951776455965909 L 1.8173384232954544 1.951776455965909 Q 1.8399769176136362 1.951776455965909 1.856356534090909 1.9453844105113636 Q 1.8727361505681817 1.9389923650568182 1.8746004971590908 1.9179518821022725 L 1.88232421875 1.8431116832386363 Q 1.8833895596590908 1.8343226207386363 1.8891157670454544 1.8303275923295454 Q 1.8948419744318181 1.8263325639204544 1.9041637073863635 1.8263325639204544 Q 1.9140181107954544 1.8263325639204544 1.9213423295454544 1.831659268465909 Q 1.9286665482954544 1.8369859730113636 1.9286665482954544 1.8476393821022725 L 1.9166814630681817 1.9805406605113636 Q 1.9158824573863635 1.9879980468749998 1.9118874289772725 1.9933247514204544 Q 1.9078924005681817 1.998651455965909 1.9004350142045454 1.998651455965909 L 1.4878817471590908 1.998651455965909 Q 1.4785600142045454 1.998651455965909 1.4733664772727273 1.9918599076704544 Q 1.468172940340909 1.9850683593749998 1.468172940340909 1.9762792968749998 Q 1.468172940340909 1.966424893465909 1.4727006392045454 1.959100674715909 Q 1.4772283380681817 1.951776455965909 1.4873490767045454 1.951776455965909 L 1.5675159801136362 1.951776455965909 L 1.5675159801136362 1.5890278764204544 L 1.5038618607954544 1.5890278764204544 Q 1.4937411221590908 1.5890278764204544 1.4892134232954544 1.5817036576704544 Q 1.4846857244318181 1.5743794389204544 1.4846857244318181 1.5645250355113636 Q 1.4846857244318181 1.5557359730113636 1.4898792613636362 1.548944424715909 Q 1.4950727982954544 1.5421528764204544 1.50439453125 1.5421528764204544 L 1.688698508522727 1.5421528764204544 Q 1.6980202414772727 1.5421528764204544 1.7032137784090908 1.548944424715909 Q 1.708407315340909 1.5557359730113636 1.708407315340909 1.5645250355113636 L 1.708407315340909 1.5645250355113636 M 2.162908380681818 1.577575461647727 Q 2.0989879261363633 1.577575461647727 2.078213778409091 1.601678799715909 Q 2.057439630681818 1.6257821377840909 2.057439630681818 1.655878018465909 Q 2.057439630681818 1.6817125355113636 2.075417258522727 1.6975594815340909 Q 2.0933948863636362 1.7134064275568182 2.1290838068181817 1.7221954900568182 L 2.205522017045454 1.7411052911931817 Q 2.2579900568181817 1.7541557173295454 2.2910156249999996 1.7838520951704544 Q 2.324041193181818 1.8135484730113636 2.324041193181818 1.8766699218749998 Q 2.324041193181818 1.9456507457386363 2.2694424715909087 1.9757466264204544 Q 2.2148437499999996 2.0058425071022725 2.145063920454545 2.0058425071022725 Q 2.1168323863636362 2.0058425071022725 2.0872691761363633 1.9983851207386363 Q 2.057705965909091 1.9909277343749998 2.0321377840909087 1.9733496093749998 Q 2.031072443181818 1.9824050071022725 2.0265447443181817 1.9938574218749998 Q 2.0220170454545454 2.005309836647727 2.0129616477272725 2.005309836647727 Q 2.003373579545454 2.005309836647727 1.9975142045454544 2.0013148082386363 Q 1.9916548295454544 1.9973197798295454 1.9905894886363633 1.9882643821022725 L 1.975408380681818 1.8561621093749998 Q 1.975408380681818 1.8455087002840909 1.9818004261363633 1.8403151633522725 Q 1.988192471590909 1.8351216264204544 2.0009765624999996 1.8351216264204544 Q 2.0089666193181817 1.8351216264204544 2.015092329545454 1.839782492897727 Q 2.021218039772727 1.8444433593749998 2.022283380681818 1.8524334161931817 L 2.0265447443181817 1.8894540127840909 Q 2.0292080965909087 1.9142231889204544 2.063299005681818 1.936462180397727 Q 2.097389914772727 1.9587011718749998 2.138405539772727 1.9587011718749998 Q 2.1839488636363633 1.9587011718749998 2.2266956676136362 1.9424547230113636 Q 2.2694424715909087 1.926208274147727 2.2694424715909087 1.876403586647727 Q 2.2694424715909087 1.840448330965909 2.2477361505681817 1.8263325639204544 Q 2.226029829545454 1.8122167968749998 2.1962002840909087 1.8036940696022725 L 2.108842329545454 1.778924893465909 Q 2.0611683238636362 1.768271484375 2.029873934659091 1.7409721235795454 Q 1.9985795454545452 1.7136727627840909 1.9985795454545452 1.6601393821022725 Q 1.9985795454545452 1.6018119673295454 2.044256036931818 1.5686532315340909 Q 2.089932528409091 1.5354944957386363 2.154119318181818 1.5354944957386363 Q 2.1818181818181817 1.5354944957386363 2.210981889204545 1.542419211647727 Q 2.2401455965909087 1.5493439275568182 2.259321732954545 1.5653240411931817 Q 2.259321732954545 1.554137961647727 2.2663796164772725 1.5449493963068182 Q 2.2734374999999996 1.535760830965909 2.2843572443181817 1.535760830965909 Q 2.2923473011363633 1.535760830965909 2.2984730113636362 1.5405548650568182 Q 2.3045987215909087 1.545348899147727 2.3056640624999996 1.553338955965909 L 2.3075284090909087 1.6590740411931817 Q 2.3075284090909087 1.670526455965909 2.300603693181818 1.675719992897727 Q 2.293678977272727 1.6809135298295454 2.283025568181818 1.6809135298295454 Q 2.2737038352272725 1.6809135298295454 2.2677112926136362 1.6769185014204544 Q 2.2617187499999996 1.6729234730113636 2.2606534090909087 1.6641344105113636 L 2.259588068181818 1.633239524147727 Q 2.2561257102272725 1.603143643465909 2.2265624999999996 1.5903595525568182 Q 2.196999289772727 1.577575461647727 2.162908380681818 1.577575461647727 L 2.162908380681818 1.577575461647727 M 2.378506747159091 1.683310546875 Q 2.369717684659091 1.683310546875 2.365056818181818 1.677451171875 Q 2.3603959517045454 1.671591796875 2.3603959517045454 1.6620037286931817 L 2.3643909801136362 1.562927024147727 Q 2.3646573153409087 1.5525399502840909 2.368119673295454 1.5473464133522725 Q 2.3715820312499996 1.5421528764204544 2.3806374289772725 1.5421528764204544 L 2.764692826704545 1.5421528764204544 Q 2.7732155539772725 1.5421528764204544 2.776944247159091 1.547479580965909 Q 2.7806729403409087 1.5528062855113636 2.7809392755681817 1.562927024147727 L 2.7849343039772725 1.6620037286931817 Q 2.7849343039772725 1.671591796875 2.7802734374999996 1.677451171875 Q 2.775612571022727 1.683310546875 2.766823508522727 1.683310546875 Q 2.7575017755681817 1.683310546875 2.751775568181818 1.679315518465909 Q 2.746049360795454 1.6753204900568182 2.7449840198863633 1.665466086647727 L 2.7367276278409087 1.5890278764204544 L 2.600896661931818 1.5890278764204544 L 2.600896661931818 1.951776455965909 L 2.671475497159091 1.951776455965909 Q 2.681596235795454 1.951776455965909 2.685990767045454 1.959100674715909 Q 2.690385298295454 1.966424893465909 2.690385298295454 1.9762792968749998 Q 2.690385298295454 1.9850683593749998 2.6853249289772725 1.9918599076704544 Q 2.680264559659091 1.998651455965909 2.670942826704545 1.998651455965909 L 2.469060724431818 1.998651455965909 Q 2.4597389914772725 1.998651455965909 2.454545454545454 1.9918599076704544 Q 2.4493519176136362 1.9850683593749998 2.4493519176136362 1.9762792968749998 Q 2.4493519176136362 1.966424893465909 2.4538796164772725 1.959100674715909 Q 2.4584073153409087 1.951776455965909 2.4685280539772725 1.951776455965909 L 2.5388405539772725 1.951776455965909 L 2.5388405539772725 1.5890278764204544 L 2.4083362926136362 1.5890278764204544 L 2.400346235795454 1.665466086647727 Q 2.3992808948863633 1.6755868252840909 2.3935546874999996 1.6794486860795454 Q 2.3878284801136362 1.683310546875 2.378506747159091 1.683310546875 L 2.378506747159091 1.683310546875 M 2.794389204545454 1.9762792968749998 Q 2.794389204545454 1.966424893465909 2.7989169034090904 1.959100674715909 Q 2.803444602272727 1.951776455965909 2.8135653409090904 1.951776455965909 L 2.8505859374999996 1.951776455965909 L 3.026899857954545 1.5536052911931817 Q 3.030894886363636 1.5442835582386363 3.038884943181818 1.5366930042613636 Q 3.0468749999999996 1.5291024502840909 3.0596590909090904 1.5291024502840909 Q 3.0729758522727266 1.5291024502840909 3.080033735795454 1.5369593394886363 Q 3.087091619318181 1.5448162286931817 3.0910866477272725 1.5546706321022725 L 3.251154119318181 1.951776455965909 L 3.2985617897727266 1.951776455965909 Q 3.3086825284090904 1.951776455965909 3.3130770596590904 1.959100674715909 Q 3.3174715909090904 1.966424893465909 3.3174715909090904 1.9762792968749998 Q 3.3174715909090904 1.9850683593749998 3.3124112215909087 1.9918599076704544 Q 3.3073508522727266 1.998651455965909 3.298029119318181 1.998651455965909 L 3.1262428977272725 1.998651455965909 Q 3.1169211647727266 1.998651455965909 3.1117276278409087 1.9918599076704544 Q 3.1065340909090904 1.9850683593749998 3.1065340909090904 1.9762792968749998 Q 3.1065340909090904 1.966424893465909 3.1110617897727266 1.959100674715909 Q 3.1155894886363633 1.951776455965909 3.1257102272727266 1.951776455965909 L 3.184037642045454 1.951776455965909 L 3.1446200284090904 1.8476393821022725 L 2.9515269886363633 1.8476393821022725 L 2.909712357954545 1.951776455965909 L 2.9592507102272725 1.951776455965909 Q 2.969371448863636 1.951776455965909 2.9738991477272725 1.959100674715909 Q 2.9784268465909087 1.966424893465909 2.9784268465909087 1.9762792968749998 Q 2.9784268465909087 1.9850683593749998 2.9732333096590904 1.9918599076704544 Q 2.9680397727272725 1.998651455965909 2.9587180397727266 1.998651455965909 L 2.814098011363636 1.998651455965909 Q 2.8047762784090904 1.998651455965909 2.7995827414772725 1.9918599076704544 Q 2.794389204545454 1.9850683593749998 2.794389204545454 1.9762792968749998 L 2.794389204545454 1.9762792968749998 M 2.9680397727272725 1.8066237571022725 L 3.129438920454545 1.8066237571022725 L 3.051402698863636 1.5994149502840909 L 2.9680397727272725 1.8066237571022725 M 3.7690429687499996 1.8465740411931817 Q 3.7690429687499996 1.9104944957386363 3.715509588068181 1.9579021661931817 Q 3.6619762073863633 2.005309836647727 3.5727539062499996 2.005309836647727 Q 3.472345525568181 2.005309836647727 3.4053622159090904 1.9391255326704544 Q 3.3383789062499996 1.8729412286931817 3.3383789062499996 1.7618794389204544 Q 3.3383789062499996 1.6604057173295454 3.406693892045454 1.5979501065340909 Q 3.4750088778409087 1.5354944957386363 3.577814275568181 1.5354944957386363 Q 3.621226917613636 1.5354944957386363 3.652388139204545 1.550009765625 Q 3.683549360795454 1.5645250355113636 3.7075195312499996 1.5890278764204544 L 3.7075195312499996 1.5613290127840909 Q 3.7075195312499996 1.551208274147727 3.7148437499999996 1.5466805752840909 Q 3.7221679687499996 1.5421528764204544 3.7320223721590904 1.5421528764204544 Q 3.7408114346590904 1.5421528764204544 3.747602982954545 1.5473464133522725 Q 3.7543945312499996 1.5525399502840909 3.7543945312499996 1.5618616832386363 L 3.7543945312499996 1.6614710582386363 Q 3.7543945312499996 1.6707927911931817 3.747602982954545 1.675986328125 Q 3.7408114346590904 1.6811798650568182 3.7320223721590904 1.6811798650568182 Q 3.722966974431818 1.6811798650568182 3.718705610795454 1.6741219815340909 Q 3.7144442471590904 1.6670640980113636 3.709650213068181 1.6604057173295454 Q 3.6902077414772725 1.6284454900568182 3.6589133522727266 1.607138671875 Q 3.627618963068181 1.5858318536931817 3.577814275568181 1.5858318536931817 Q 3.498979048295454 1.5858318536931817 3.4537020596590904 1.6365687144886363 Q 3.4084250710227266 1.6873055752840909 3.4084250710227266 1.7648091264204544 Q 3.4084250710227266 1.852167080965909 3.4526367187499996 1.9026376065340909 Q 3.4968483664772725 1.9531081321022725 3.577814275568181 1.9531081321022725 Q 3.6340110085227266 1.9531081321022725 3.668900923295454 1.9226127485795454 Q 3.703790838068181 1.8921173650568182 3.7136452414772725 1.8415136718749998 Q 3.715509588068181 1.8319256036931817 3.7236328124999996 1.827264737215909 Q 3.731756036931818 1.8226038707386363 3.7408114346590904 1.8226038707386363 Q 3.7511985085227266 1.8226038707386363 3.7601207386363633 1.828729580965909 Q 3.7690429687499996 1.8348552911931817 3.7690429687499996 1.8465740411931817 L 3.7690429687499996 1.8465740411931817 M 3.8077947443181817 1.9762792968749998 Q 3.8077947443181817 1.966424893465909 3.812322443181818 1.959100674715909 Q 3.816850142045454 1.951776455965909 3.826970880681818 1.951776455965909 L 3.885298295454545 1.951776455965909 L 3.885298295454545 1.5890278764204544 L 3.826970880681818 1.5890278764204544 Q 3.816850142045454 1.5890278764204544 3.812322443181818 1.5817036576704544 Q 3.8077947443181817 1.5743794389204544 3.8077947443181817 1.5645250355113636 Q 3.8077947443181817 1.5557359730113636 3.8129882812499996 1.548944424715909 Q 3.818181818181818 1.5421528764204544 3.8275035511363633 1.5421528764204544 L 4.000887784090909 1.5421528764204544 Q 4.010209517045454 1.5421528764204544 4.0154030539772725 1.548944424715909 Q 4.020596590909091 1.5557359730113636 4.020596590909091 1.5645250355113636 Q 4.020596590909091 1.5743794389204544 4.016202059659091 1.5817036576704544 Q 4.011807528409091 1.5890278764204544 4.001686789772727 1.5890278764204544 L 3.9476207386363633 1.5890278764204544 L 3.9476207386363633 1.7743971946022725 L 4.158558238636363 1.5994149502840909 Q 4.159623579545454 1.598349609375 4.161088423295454 1.5960857599431817 Q 4.162553267045454 1.5938219105113636 4.162553267045454 1.5911585582386363 Q 4.162553267045454 1.5882288707386363 4.160289417613636 1.5867640269886363 Q 4.1580255681818175 1.5852991832386363 4.153764204545454 1.5852991832386363 L 4.135120738636363 1.5852991832386363 Q 4.125532670454545 1.5852991832386363 4.1208718039772725 1.5801056463068182 Q 4.1162109375 1.574912109375 4.1162109375 1.5645250355113636 Q 4.1162109375 1.5557359730113636 4.121271306818182 1.548944424715909 Q 4.126331676136363 1.5421528764204544 4.135653409090908 1.5421528764204544 L 4.276544744318182 1.5421528764204544 Q 4.285866477272727 1.5421528764204544 4.290926846590908 1.548944424715909 Q 4.295987215909091 1.5557359730113636 4.295987215909091 1.5645250355113636 Q 4.295987215909091 1.5743794389204544 4.291592684659091 1.5817036576704544 Q 4.287198153409091 1.5890278764204544 4.277077414772727 1.5890278764204544 L 4.234996448863636 1.5890278764204544 L 4.073597301136363 1.7280548650568182 L 4.282936789772727 1.951776455965909 L 4.320756392045454 1.951776455965909 Q 4.3308771306818175 1.951776455965909 4.3352716619318175 1.959100674715909 Q 4.3396661931818175 1.966424893465909 4.3396661931818175 1.9762792968749998 Q 4.3396661931818175 1.9850683593749998 4.334605823863636 1.9918599076704544 Q 4.329545454545454 1.998651455965909 4.320223721590908 1.998651455965909 L 4.1574928977272725 1.998651455965909 Q 4.148171164772727 1.998651455965909 4.143110795454545 1.9918599076704544 Q 4.138050426136363 1.9850683593749998 4.138050426136363 1.9762792968749998 Q 4.138050426136363 1.966424893465909 4.142444957386363 1.959100674715909 Q 4.146839488636363 1.951776455965909 4.156960227272727 1.951776455965909 L 4.2099609375 1.951776455965909 L 4.033647017045454 1.7560200639204544 L 3.9476207386363633 1.8223375355113636 L 3.9476207386363633 1.951776455965909 L 4.0232599431818175 1.951776455965909 Q 4.033380681818182 1.951776455965909 4.0379083806818175 1.959100674715909 Q 4.042436079545454 1.966424893465909 4.042436079545454 1.9762792968749998 Q 4.042436079545454 1.9850683593749998 4.037242542613636 1.9918599076704544 Q 4.0320490056818175 1.998651455965909 4.0227272727272725 1.998651455965909 L 3.8275035511363633 1.998651455965909 Q 3.818181818181818 1.998651455965909 3.8129882812499996 1.9918599076704544 Q 3.8077947443181817 1.9850683593749998 3.8077947443181817 1.9762792968749998 L 3.8077947443181817 1.9762792968749998 M 4.891779119318182 1.768005149147727 Q 4.891779119318182 1.682245205965909 4.840509588068182 1.6356365411931817 Q 4.789240056818182 1.5890278764204544 4.7029474431818175 1.5890278764204544 L 4.6267755681818175 1.5890278764204544 L 4.6267755681818175 1.951776455965909 Q 4.636097301136363 1.9523091264204544 4.645152698863636 1.952575461647727 Q 4.654208096590908 1.9528417968749998 4.663263494318182 1.9528417968749998 Q 4.764204545454545 1.9528417968749998 4.827991832386363 1.9120925071022725 Q 4.891779119318182 1.8713432173295454 4.891779119318182 1.768005149147727 L 4.891779119318182 1.768005149147727 M 4.956232244318182 1.768005149147727 Q 4.956232244318182 1.8803986150568182 4.882191051136363 1.9395250355113636 Q 4.808149857954545 1.998651455965909 4.695490056818182 1.998651455965909 L 4.493607954545454 1.998651455965909 Q 4.484286221590908 1.998651455965909 4.479092684659091 1.9918599076704544 Q 4.4738991477272725 1.9850683593749998 4.4738991477272725 1.9762792968749998 Q 4.4738991477272725 1.966424893465909 4.478426846590908 1.959100674715909 Q 4.482954545454545 1.951776455965909 4.493075284090908 1.951776455965909 L 4.564453125 1.951776455965909 L 4.564453125 1.5890278764204544 L 4.510387073863636 1.5890278764204544 Q 4.5002663352272725 1.5890278764204544 4.4958718039772725 1.5817036576704544 Q 4.4914772727272725 1.5743794389204544 4.4914772727272725 1.5645250355113636 Q 4.4914772727272725 1.5557359730113636 4.496670809659091 1.548944424715909 Q 4.501864346590908 1.5421528764204544 4.511186079545454 1.5421528764204544 L 4.695490056818182 1.5421528764204544 Q 4.810546875 1.5421528764204544 4.883389559659091 1.5982164417613636 Q 4.956232244318182 1.6542800071022725 4.956232244318182 1.768005149147727 L 4.956232244318182 1.768005149147727 M 5.2863547585227275 1.825799893465909 Q 5.2863547585227275 1.8351216264204544 5.281560724431818 1.8411141690340909 Q 5.276766690340909 1.847106711647727 5.267711292613637 1.847106711647727 Q 5.259454900568182 1.847106711647727 5.253995028409091 1.8417800071022725 Q 5.24853515625 1.8364533025568182 5.246404474431818 1.8289959161931817 L 5.232821377840909 1.7794575639204544 L 5.143865411931818 1.7794575639204544 L 5.143865411931818 1.951776455965909 L 5.379039417613637 1.951776455965909 L 5.4099343039772725 1.863885830965909 Q 5.413662997159091 1.8556294389204544 5.420321377840909 1.8496368963068182 Q 5.4269797585227275 1.8436443536931817 5.437366832386363 1.8436443536931817 Q 5.446155894886363 1.8436443536931817 5.451482599431818 1.8489710582386363 Q 5.4568093039772725 1.8542977627840909 5.4568093039772725 1.8633531605113636 Q 5.4568093039772725 1.8660165127840909 5.456409801136363 1.8686798650568182 Q 5.456010298295454 1.8713432173295454 5.455211292613637 1.8737402343749998 L 5.438432173295454 1.9778773082386363 Q 5.4357688210227275 1.9874653764204544 5.430974786931818 1.9930584161931817 Q 5.426180752840909 1.998651455965909 5.416592684659091 1.998651455965909 L 5.006436434659091 1.998651455965909 Q 4.997114701704545 1.998651455965909 4.9919211647727275 1.9918599076704544 Q 4.986727627840909 1.9850683593749998 4.986727627840909 1.9762792968749998 Q 4.986727627840909 1.966424893465909 4.991255326704545 1.959100674715909 Q 4.995783025568182 1.951776455965909 5.005903764204545 1.951776455965909 L 5.0818093039772725 1.951776455965909 L 5.0818093039772725 1.5890278764204544 L 5.033069957386363 1.5890278764204544 Q 5.02294921875 1.5890278764204544 5.0185546875 1.5817036576704544 Q 5.01416015625 1.5743794389204544 5.01416015625 1.5645250355113636 Q 5.01416015625 1.5557359730113636 5.019220525568182 1.548944424715909 Q 5.024280894886363 1.5421528764204544 5.033602627840909 1.5421528764204544 L 5.405672940340909 1.5421528764204544 Q 5.4152610085227275 1.5421528764204544 5.419788707386363 1.5478790838068182 Q 5.42431640625 1.5536052911931817 5.4275124289772725 1.562927024147727 L 5.453080610795454 1.6473552911931817 Q 5.4538796164772725 1.6502849786931817 5.454279119318182 1.652948330965909 Q 5.454678622159091 1.6556116832386363 5.454678622159091 1.6577423650568182 Q 5.454678622159091 1.6665314275568182 5.44921875 1.671991299715909 Q 5.443758877840909 1.677451171875 5.435236150568182 1.677451171875 Q 5.425381747159091 1.677451171875 5.418323863636363 1.6714586292613636 Q 5.411265980113637 1.665466086647727 5.407803622159091 1.6572096946022725 L 5.379039417613637 1.5890278764204544 L 5.143865411931818 1.5890278764204544 L 5.143865411931818 1.7411052911931817 L 5.232821377840909 1.7411052911931817 L 5.246404474431818 1.6915669389204544 Q 5.24853515625 1.6841095525568182 5.253995028409091 1.6787828480113636 Q 5.259454900568182 1.673456143465909 5.267711292613637 1.673456143465909 Q 5.276766690340909 1.673456143465909 5.281560724431818 1.6794486860795454 Q 5.2863547585227275 1.6854412286931817 5.2863547585227275 1.694762961647727 L 5.282359730113637 1.759216086647727 L 5.2863547585227275 1.825799893465909 M 5.968306107954545 1.5645250355113636 Q 5.968306107954545 1.5743794389204544 5.963911576704545 1.5817036576704544 Q 5.959517045454545 1.5890278764204544 5.949396306818182 1.5890278764204544 L 5.904119318181818 1.5890278764204544 L 5.757368607954545 1.9909277343749998 Q 5.752840909090909 2.0013148082386363 5.747913707386363 2.007041015625 Q 5.742986505681818 2.0127672230113633 5.732333096590909 2.0127672230113633 Q 5.7219460227272725 2.0127672230113633 5.716486150568182 2.006641512784091 Q 5.711026278409091 2.000515802556818 5.707563920454546 1.9909277343749998 L 5.558682528409091 1.5890278764204544 L 5.502485795454546 1.5890278764204544 Q 5.492365056818182 1.5890278764204544 5.487970525568182 1.5817036576704544 Q 5.483575994318182 1.5743794389204544 5.483575994318182 1.5645250355113636 Q 5.483575994318182 1.5557359730113636 5.488636363636363 1.548944424715909 Q 5.493696732954546 1.5421528764204544 5.503018465909091 1.5421528764204544 L 5.666814630681818 1.5421528764204544 Q 5.676136363636363 1.5421528764204544 5.681329900568182 1.548944424715909 Q 5.6865234375 1.5557359730113636 5.6865234375 1.5645250355113636 Q 5.6865234375 1.5743794389204544 5.681995738636363 1.5817036576704544 Q 5.6774680397727275 1.5890278764204544 5.667347301136363 1.5890278764204544 L 5.624200994318182 1.5890278764204544 L 5.739790482954545 1.9102281605113636 L 5.849520596590909 1.5890278764204544 L 5.8063742897727275 1.5890278764204544 Q 5.796253551136363 1.5890278764204544 5.7917258522727275 1.5817036576704544 Q 5.787198153409091 1.5743794389204544 5.787198153409091 1.5645250355113636 Q 5.787198153409091 1.5557359730113636 5.792391690340909 1.548944424715909 Q 5.7975852272727275 1.5421528764204544 5.8069069602272725 1.5421528764204544 L 5.948863636363637 1.5421528764204544 Q 5.958185369318182 1.5421528764204544 5.963245738636363 1.548944424715909 Q 5.968306107954545 1.5557359730113636 5.968306107954545 1.5645250355113636 L 5.968306107954545 1.5645250355113636 M 6.2824485085227275 1.825799893465909 Q 6.2824485085227275 1.8351216264204544 6.277654474431818 1.8411141690340909 Q 6.272860440340909 1.847106711647727 6.263805042613637 1.847106711647727 Q 6.255548650568182 1.847106711647727 6.250088778409091 1.8417800071022725 Q 6.24462890625 1.8364533025568182 6.242498224431818 1.8289959161931817 L 6.228915127840909 1.7794575639204544 L 6.139959161931818 1.7794575639204544 L 6.139959161931818 1.951776455965909 L 6.375133167613637 1.951776455965909 L 6.4060280539772725 1.863885830965909 Q 6.409756747159091 1.8556294389204544 6.416415127840909 1.8496368963068182 Q 6.4230735085227275 1.8436443536931817 6.433460582386363 1.8436443536931817 Q 6.442249644886363 1.8436443536931817 6.447576349431818 1.8489710582386363 Q 6.4529030539772725 1.8542977627840909 6.4529030539772725 1.8633531605113636 Q 6.4529030539772725 1.8660165127840909 6.452503551136363 1.8686798650568182 Q 6.452104048295454 1.8713432173295454 6.451305042613637 1.8737402343749998 L 6.434525923295454 1.9778773082386363 Q 6.4318625710227275 1.9874653764204544 6.427068536931818 1.9930584161931817 Q 6.422274502840909 1.998651455965909 6.412686434659091 1.998651455965909 L 6.002530184659091 1.998651455965909 Q 5.993208451704545 1.998651455965909 5.9880149147727275 1.9918599076704544 Q 5.982821377840909 1.9850683593749998 5.982821377840909 1.9762792968749998 Q 5.982821377840909 1.966424893465909 5.987349076704545 1.959100674715909 Q 5.991876775568182 1.951776455965909 6.001997514204545 1.951776455965909 L 6.0779030539772725 1.951776455965909 L 6.0779030539772725 1.5890278764204544 L 6.029163707386363 1.5890278764204544 Q 6.01904296875 1.5890278764204544 6.0146484375 1.5817036576704544 Q 6.01025390625 1.5743794389204544 6.01025390625 1.5645250355113636 Q 6.01025390625 1.5557359730113636 6.015314275568182 1.548944424715909 Q 6.020374644886363 1.5421528764204544 6.029696377840909 1.5421528764204544 L 6.401766690340909 1.5421528764204544 Q 6.4113547585227275 1.5421528764204544 6.415882457386363 1.5478790838068182 Q 6.42041015625 1.5536052911931817 6.4236061789772725 1.562927024147727 L 6.449174360795454 1.6473552911931817 Q 6.4499733664772725 1.6502849786931817 6.450372869318182 1.652948330965909 Q 6.450772372159091 1.6556116832386363 6.450772372159091 1.6577423650568182 Q 6.450772372159091 1.6665314275568182 6.4453125 1.671991299715909 Q 6.439852627840909 1.677451171875 6.431329900568182 1.677451171875 Q 6.421475497159091 1.677451171875 6.414417613636363 1.6714586292613636 Q 6.407359730113637 1.665466086647727 6.403897372159091 1.6572096946022725 L 6.375133167613637 1.5890278764204544 L 6.139959161931818 1.5890278764204544 L 6.139959161931818 1.7411052911931817 L 6.228915127840909 1.7411052911931817 L 6.242498224431818 1.6915669389204544 Q 6.24462890625 1.6841095525568182 6.250088778409091 1.6787828480113636 Q 6.255548650568182 1.673456143465909 6.263805042613637 1.673456143465909 Q 6.272860440340909 1.673456143465909 6.277654474431818 1.6794486860795454 Q 6.2824485085227275 1.6854412286931817 6.2824485085227275 1.694762961647727 L 6.278453480113637 1.759216086647727 L 6.2824485085227275 1.825799893465909 M 6.724431818181818 1.5645250355113636 Q 6.724431818181818 1.5743794389204544 6.719904119318182 1.5817036576704544 Q 6.715376420454546 1.5890278764204544 6.705255681818182 1.5890278764204544 L 6.645862926136363 1.5890278764204544 L 6.645862926136363 1.951776455965909 L 6.833362926136363 1.951776455965909 Q 6.856001420454545 1.951776455965909 6.872381036931818 1.9453844105113636 Q 6.888760653409091 1.9389923650568182 6.890625 1.9179518821022725 L 6.898348721590909 1.8431116832386363 Q 6.8994140625 1.8343226207386363 6.905140269886363 1.8303275923295454 Q 6.9108664772727275 1.8263325639204544 6.9201882102272725 1.8263325639204544 Q 6.930042613636363 1.8263325639204544 6.937366832386363 1.831659268465909 Q 6.944691051136363 1.8369859730113636 6.944691051136363 1.8476393821022725 L 6.932705965909091 1.9805406605113636 Q 6.9319069602272725 1.9879980468749998 6.927911931818182 1.9933247514204544 Q 6.923916903409091 1.998651455965909 6.916459517045454 1.998651455965909 L 6.50390625 1.998651455965909 Q 6.494584517045454 1.998651455965909 6.489390980113637 1.9918599076704544 Q 6.484197443181818 1.9850683593749998 6.484197443181818 1.9762792968749998 Q 6.484197443181818 1.966424893465909 6.488725142045454 1.959100674715909 Q 6.493252840909091 1.951776455965909 6.503373579545454 1.951776455965909 L 6.583540482954546 1.951776455965909 L 6.583540482954546 1.5890278764204544 L 6.519886363636363 1.5890278764204544 Q 6.509765625 1.5890278764204544 6.505237926136363 1.5817036576704544 Q 6.5007102272727275 1.5743794389204544 6.5007102272727275 1.5645250355113636 Q 6.5007102272727275 1.5557359730113636 6.505903764204546 1.548944424715909 Q 6.511097301136363 1.5421528764204544 6.520419034090909 1.5421528764204544 L 6.704723011363637 1.5421528764204544 Q 6.714044744318182 1.5421528764204544 6.71923828125 1.548944424715909 Q 6.724431818181818 1.5557359730113636 6.724431818181818 1.5645250355113636 L 6.724431818181818 1.5645250355113636 M 7.221812855113636 2.005309836647727 Q 7.11767578125 2.005309836647727 7.051358309659091 1.941522549715909 Q 6.985040838068182 1.8777352627840909 6.985040838068182 1.7722665127840909 Q 6.985040838068182 1.6665314275568182 7.051358309659091 1.601012961647727 Q 7.11767578125 1.5354944957386363 7.221812855113636 1.5354944957386363 Q 7.327281605113636 1.5354944957386363 7.393998579545454 1.601012961647727 Q 7.4607155539772725 1.6665314275568182 7.4607155539772725 1.7722665127840909 Q 7.4607155539772725 1.8777352627840909 7.393732244318182 1.941522549715909 Q 7.326748934659091 2.005309836647727 7.221812855113636 2.005309836647727 L 7.221812855113636 2.005309836647727 M 7.219415838068182 1.5858318536931817 Q 7.140047940340909 1.5858318536931817 7.095836292613636 1.6386993963068182 Q 7.051624644886363 1.6915669389204544 7.051624644886363 1.7722665127840909 Q 7.051624644886363 1.852966086647727 7.097034801136363 1.9039692826704544 Q 7.142444957386363 1.9549724786931817 7.223943536931818 1.9549724786931817 Q 7.303577769886363 1.9549724786931817 7.34912109375 1.9046351207386363 Q 7.394664417613636 1.8542977627840909 7.394664417613636 1.7727991832386363 Q 7.394664417613636 1.6905015980113636 7.3479225852272725 1.6381667258522725 Q 7.301180752840909 1.5858318536931817 7.219415838068182 1.5858318536931817 L 7.219415838068182 1.5858318536931817 M 7.863813920454545 1.6729234730113636 Q 7.863813920454545 1.6103346946022725 7.808948863636363 1.5996812855113636 Q 7.754083806818182 1.5890278764204544 7.698153409090909 1.5890278764204544 L 7.643022017045454 1.5890278764204544 L 7.643022017045454 1.7618794389204544 L 7.714399857954545 1.7618794389204544 Q 7.771661931818182 1.7618794389204544 7.817737926136363 1.749228515625 Q 7.863813920454545 1.7365775923295454 7.863813920454545 1.6729234730113636 L 7.863813920454545 1.6729234730113636 M 7.926669034090909 1.6769185014204544 Q 7.926669034090909 1.7690704900568182 7.85595703125 1.7873144531249998 Q 7.785245028409091 1.8055584161931817 7.700284090909091 1.8055584161931817 L 7.643022017045454 1.8055584161931817 L 7.643022017045454 1.951776455965909 L 7.724254261363636 1.951776455965909 Q 7.734375 1.951776455965909 7.738902698863636 1.959100674715909 Q 7.7434303977272725 1.966424893465909 7.7434303977272725 1.9762792968749998 Q 7.7434303977272725 1.9850683593749998 7.738236860795454 1.9918599076704544 Q 7.733043323863636 1.998651455965909 7.723721590909091 1.998651455965909 L 7.510919744318182 1.998651455965909 Q 7.501598011363636 1.998651455965909 7.496404474431818 1.9918599076704544 Q 7.4912109375 1.9850683593749998 7.4912109375 1.9762792968749998 Q 7.4912109375 1.966424893465909 7.495738636363636 1.959100674715909 Q 7.5002663352272725 1.951776455965909 7.510387073863636 1.951776455965909 L 7.580699573863636 1.951776455965909 L 7.580699573863636 1.5890278764204544 L 7.515980113636363 1.5890278764204544 Q 7.505859375 1.5890278764204544 7.501331676136363 1.5817036576704544 Q 7.4968039772727275 1.5743794389204544 7.4968039772727275 1.5645250355113636 Q 7.4968039772727275 1.5557359730113636 7.501997514204545 1.548944424715909 Q 7.507191051136363 1.5421528764204544 7.516512784090909 1.5421528764204544 L 7.6904296875 1.5421528764204544 Q 7.779385653409091 1.5421528764204544 7.85302734375 1.5618616832386363 Q 7.926669034090909 1.5815704900568182 7.926669034090909 1.6769185014204544 L 7.926669034090909 1.6769185014204544 M 8.254660866477273 1.825799893465909 Q 8.254660866477273 1.8351216264204544 8.249866832386363 1.8411141690340909 Q 8.245072798295455 1.847106711647727 8.236017400568182 1.847106711647727 Q 8.227761008522728 1.847106711647727 8.222301136363637 1.8417800071022725 Q 8.216841264204545 1.8364533025568182 8.214710582386363 1.8289959161931817 L 8.201127485795455 1.7794575639204544 L 8.112171519886363 1.7794575639204544 L 8.112171519886363 1.951776455965909 L 8.347345525568182 1.951776455965909 L 8.378240411931818 1.863885830965909 Q 8.381969105113637 1.8556294389204544 8.388627485795455 1.8496368963068182 Q 8.395285866477273 1.8436443536931817 8.40567294034091 1.8436443536931817 Q 8.41446200284091 1.8436443536931817 8.419788707386363 1.8489710582386363 Q 8.425115411931818 1.8542977627840909 8.425115411931818 1.8633531605113636 Q 8.425115411931818 1.8660165127840909 8.42471590909091 1.8686798650568182 Q 8.42431640625 1.8713432173295454 8.423517400568182 1.8737402343749998 L 8.40673828125 1.9778773082386363 Q 8.404074928977273 1.9874653764204544 8.399280894886363 1.9930584161931817 Q 8.394486860795455 1.998651455965909 8.384898792613637 1.998651455965909 L 7.974742542613637 1.998651455965909 Q 7.965420809659091 1.998651455965909 7.960227272727273 1.9918599076704544 Q 7.955033735795455 1.9850683593749998 7.955033735795455 1.9762792968749998 Q 7.955033735795455 1.966424893465909 7.959561434659091 1.959100674715909 Q 7.9640891335227275 1.951776455965909 7.974209872159091 1.951776455965909 L 8.050115411931818 1.951776455965909 L 8.050115411931818 1.5890278764204544 L 8.00137606534091 1.5890278764204544 Q 7.991255326704546 1.5890278764204544 7.986860795454546 1.5817036576704544 Q 7.982466264204546 1.5743794389204544 7.982466264204546 1.5645250355113636 Q 7.982466264204546 1.5557359730113636 7.9875266335227275 1.548944424715909 Q 7.992587002840909 1.5421528764204544 8.001908735795455 1.5421528764204544 L 8.373979048295455 1.5421528764204544 Q 8.383567116477273 1.5421528764204544 8.38809481534091 1.5478790838068182 Q 8.392622514204545 1.5536052911931817 8.395818536931818 1.562927024147727 L 8.42138671875 1.6473552911931817 Q 8.422185724431818 1.6502849786931817 8.422585227272728 1.652948330965909 Q 8.422984730113637 1.6556116832386363 8.422984730113637 1.6577423650568182 Q 8.422984730113637 1.6665314275568182 8.417524857954545 1.671991299715909 Q 8.412064985795455 1.677451171875 8.403542258522728 1.677451171875 Q 8.393687855113637 1.677451171875 8.38662997159091 1.6714586292613636 Q 8.379572088068182 1.665466086647727 8.376109730113637 1.6572096946022725 L 8.347345525568182 1.5890278764204544 L 8.112171519886363 1.5890278764204544 L 8.112171519886363 1.7411052911931817 L 8.201127485795455 1.7411052911931817 L 8.214710582386363 1.6915669389204544 Q 8.216841264204545 1.6841095525568182 8.222301136363637 1.6787828480113636 Q 8.227761008522728 1.673456143465909 8.236017400568182 1.673456143465909 Q 8.245072798295455 1.673456143465909 8.249866832386363 1.6794486860795454 Q 8.254660866477273 1.6854412286931817 8.254660866477273 1.694762961647727 L 8.250665838068182 1.759216086647727 L 8.254660866477273 1.825799893465909 M 8.646306818181818 1.747763671875 Q 8.70703125 1.747763671875 8.753373579545453 1.737243430397727 Q 8.799715909090908 1.7267231889204544 8.799715909090908 1.668662109375 Q 8.799715909090908 1.6095356889204544 8.74764737215909 1.5992817826704544 Q 8.695578835227272 1.5890278764204544 8.636452414772727 1.5890278764204544 L 8.597301136363637 1.5890278764204544 L 8.597301136363637 1.747763671875 L 8.646306818181818 1.747763671875 M 8.864435369318182 1.6659987571022725 Q 8.864435369318182 1.720331143465909 8.829012784090908 1.744833984375 Q 8.793590198863637 1.7693368252840909 8.741921164772727 1.7783922230113636 Q 8.767223011363637 1.7895783025568182 8.7861328125 1.8076890980113636 Q 8.805042613636363 1.825799893465909 8.817027698863637 1.8548304332386363 L 8.856977982954545 1.9515101207386363 L 8.896129261363637 1.9515101207386363 Q 8.912109375 1.9515101207386363 8.918501420454545 1.9571031605113636 Q 8.92489346590909 1.9626962002840909 8.92489346590909 1.9762792968749998 Q 8.92489346590909 1.9911940696022725 8.916903409090908 1.995055930397727 Q 8.908913352272727 1.9989177911931817 8.896395596590908 1.9989177911931817 L 8.780806107954545 1.998651455965909 Q 8.771484375 1.998651455965909 8.766290838068182 1.9918599076704544 Q 8.761097301136363 1.9850683593749998 8.761097301136363 1.9762792968749998 Q 8.761097301136363 1.966424893465909 8.765625 1.9589675071022725 Q 8.770152698863637 1.9515101207386363 8.7802734375 1.9515101207386363 L 8.793323863636363 1.9515101207386363 L 8.763494318181818 1.8761372514204544 Q 8.751509232954545 1.8460413707386363 8.724476207386363 1.8206063565340909 Q 8.697443181818182 1.7951713423295454 8.657759232954545 1.7951713423295454 L 8.597301136363637 1.7951713423295454 L 8.597301136363637 1.9515101207386363 L 8.667613636363637 1.9515101207386363 Q 8.677734375 1.9515101207386363 8.682262073863637 1.9589675071022725 Q 8.686789772727272 1.966424893465909 8.686789772727272 1.9762792968749998 Q 8.686789772727272 1.9850683593749998 8.681596235795453 1.9918599076704544 Q 8.676402698863637 1.998651455965909 8.66708096590909 1.998651455965909 L 8.476118607954545 1.998651455965909 Q 8.466796875 1.998651455965909 8.461603338068182 1.9918599076704544 Q 8.456409801136363 1.9850683593749998 8.456409801136363 1.9762792968749998 Q 8.456409801136363 1.966424893465909 8.4609375 1.9589675071022725 Q 8.465465198863637 1.9515101207386363 8.4755859375 1.9515101207386363 L 8.534978693181818 1.9515101207386363 L 8.534978693181818 1.5890278764204544 L 8.486505681818182 1.5890278764204544 Q 8.476384943181818 1.5890278764204544 8.471857244318182 1.5817036576704544 Q 8.467329545454545 1.5743794389204544 8.467329545454545 1.5645250355113636 Q 8.467329545454545 1.5557359730113636 8.472523082386363 1.548944424715909 Q 8.477716619318182 1.5421528764204544 8.487038352272727 1.5421528764204544 L 8.644708806818182 1.5421528764204544 Q 8.731267755681818 1.5421528764204544 8.7978515625 1.561462180397727 Q 8.864435369318182 1.580771484375 8.864435369318182 1.6659987571022725 L 8.864435369318182 1.6659987571022725" fill="#0094ff" fill-rule="nonzero"></path></g><g clip-path="url(#SvgjsClipPath1015)"><g clip-path="url(#SvgjsClipPath10131679c9a9-7d1d-40ec-b0a7-1e1b9697fdc1)"><path d=" M -1.6068069432846872 1.6529050166393553 L -2.080224555270173 2.0172017772217097 L -1.1273183346549596 2.0172017772217097 L -1.6068069432846872 1.6529050166393553 Z" fill="#5b6375" transform="matrix(1,0,0,1,0,0)" fill-rule="nonzero"></path></g><g clip-path="url(#SvgjsClipPath10131679c9a9-7d1d-40ec-b0a7-1e1b9697fdc1)"><path d=" M -2.691870536816115 -0.020287531863285694 L -0.5156723531090175 -0.020287531863285694 C -0.45178827070667404 -0.020287531863285694 -0.3999999999999999 0.03150073884338879 -0.3999999999999999 0.09538482124573203 L -0.3999999999999999 1.660593097625671 C -0.3999999999999999 1.7244771800280145 -0.45178827070667404 1.7762654507346887 -0.5156723531090175 1.7762654507346887 L -2.691870536816115 1.7762654507346887 C -2.755754619218458 1.7762654507346887 -2.8075428899251325 1.7244771800280145 -2.8075428899251325 1.660593097625671 L -2.8075428899251325 0.09538482124573203 C -2.8075428899251325 0.03150073884338879 -2.755754619218458 -0.020287531863285694 -2.691870536816115 -0.020287531863285694 Z" fill="#ec8457" transform="matrix(1,0,0,1,0,0)" fill-rule="nonzero"></path></g><g clip-path="url(#SvgjsClipPath10131679c9a9-7d1d-40ec-b0a7-1e1b9697fdc1)"><path d=" M -2.8075428899251325 1.3569416201120563 L -0.3999999999999999 1.3569416201120563 L -0.3999999999999999 1.3569416201120563 L -0.3999999999999999 1.6640675188406409 C -0.400005103080165 1.726034220302218 -0.45024047070453266 1.776265450944877 -0.5122071723761183 1.7762654507346887 L -2.6953357175491295 1.7762654507346887 C -2.7573024192207156 1.7762654509448135 -2.807537786845031 1.7260342203021026 -2.8075428899251325 1.6640675188406409 L -2.8075428899251325 1.3569416201120563 L -2.8075428899251325 1.3569416201120563 Z" fill="#73bcc4" transform="matrix(1,0,0,1,0,0)" fill-rule="nonzero"></path></g><g clip-path="url(#SvgjsClipPath10131679c9a9-7d1d-40ec-b0a7-1e1b9697fdc1)"><path d=" M -0.9020631060450759 -0.016434250888173033 L -1.0904303306917709 0.1734022103893202 Z" fill="#ffffff" transform="matrix(1,0,0,1,0,0)" fill-rule="nonzero"></path></g><g clip-path="url(#SvgjsClipPath10131679c9a9-7d1d-40ec-b0a7-1e1b9697fdc1)"><path d=" M -1.0904303306917709 0.20573465674883673 C -1.098967191539903 0.20574805738910684 -1.1071600559416843 0.20237120131112646 -1.1132081187101228 0.19634632708285135 C -1.1258849129303254 0.18376798700996513 -1.1259676464850634 0.16329556888998276 -1.113392928349217 0.1506151818890102 L -0.925025703702522 -0.039221279388483785 C -0.9189836807248319 -0.045310575355821774 -0.9107700152580225 -0.048750064054380086 -0.9021918754301443 -0.048782990247662306 C -0.8936137356022662 -0.04881591644093768 -0.885373908392233 -0.04543958256275602 -0.8792853180267244 -0.03939684854561783 C -0.8666110898995938 -0.026815951358708193 -0.8665324930677891 -0.00634354501123903 -0.8791097488695847 0.006334296648223305 L -1.0674769735162797 0.1961707579257139 C -1.0735425832425975 0.2022980094603945 -1.081808568907194 0.2057421701539796 -1.0904303306917709 0.20573465674883673 Z" fill="#5b6375" transform="matrix(1,0,0,1,0,0)" fill-rule="nonzero"></path></g><g clip-path="url(#SvgjsClipPath10131679c9a9-7d1d-40ec-b0a7-1e1b9697fdc1)"><path d=" M -0.6463420084305245 -0.016434250888173033 L -0.9808566956728595 0.32068625226538927 Z" fill="#ffffff" transform="matrix(1,0,0,1,0,0)" fill-rule="nonzero"></path></g><g clip-path="url(#SvgjsClipPath10131679c9a9-7d1d-40ec-b0a7-1e1b9697fdc1)"><path d=" M -0.9808104932630861 0.3530279391068593 C -0.989345032502168 0.35303873057207436 -0.9975358521433924 0.34966604013156877 -1.003588281281438 0.3436488499228345 C -1.0096775772487807 0.3376068269451434 -1.013117065947339 0.32939316147833353 -1.0131499921406177 0.32081502165045434 C -1.0131829183338963 0.3122368818225785 -1.009806584455714 0.3039970546125438 -1.0037638504385775 0.2979084642470362 L -0.6692584036781968 -0.03922127938848036 C -0.6632163807005069 -0.045310575355821774 -0.6550027152336977 -0.048750064054380086 -0.6464245754058191 -0.048782990247662306 C -0.637846435577941 -0.04881591644093768 -0.6296066083679075 -0.04543958256275602 -0.6235180180023989 -0.03939684854561783 C -0.6108437898752688 -0.026815951358708193 -0.6107651930434637 -0.00634354501123903 -0.6233424488452597 0.006334296648223305 L -0.95784789560564 0.34346404028374333 C -0.9639145808970131 0.34959532015886247 -0.9721851168593578 0.3530399900667197 -0.9808104932630861 0.35302793910685587 Z" fill="#5b6375" transform="matrix(1,0,0,1,0,0)" fill-rule="nonzero"></path></g><g clip-path="url(#SvgjsClipPath10131679c9a9-7d1d-40ec-b0a7-1e1b9697fdc1)"><path d=" M -2.425975668569431 1.0468310457121013 L -2.7279176569214254 1.3511385974445003 Z" fill="#ffffff" transform="matrix(1,0,0,1,0,0)" fill-rule="nonzero"></path></g><g clip-path="url(#SvgjsClipPath10131679c9a9-7d1d-40ec-b0a7-1e1b9697fdc1)"><path d=" M -2.7279176569214254 1.3834710438040183 C -2.7364545177695576 1.3834844444442917 -2.7446473821713386 1.3801075883663114 -2.7506954449397774 1.3740827141380398 C -2.763369673066908 1.3615018169511233 -2.7634482698987126 1.3410294106036575 -2.750871014096917 1.3283515689441954 L -2.4489290257449228 1.0240440172117937 C -2.442888231598299 1.017953489635782 -2.434675253361237 1.0145123346076943 -2.42609711144013 1.0144776754484144 C -2.4175189695190236 1.0144430162891376 -2.4092784525696875 1.0178176925487992 -2.403188640069125 1.0238592075726958 C -2.3905144119419948 1.0364401047596088 -2.39043581511019 1.056912511107078 -2.4030130709119857 1.0695903527665402 L -2.7049642997459347 1.3739071449808953 C -2.711029909472252 1.3800343965155761 -2.7192958951368484 1.3834785572091612 -2.7279176569214254 1.3834710438040183 Z" fill="#5b6375" transform="matrix(1,0,0,1,0,0)" fill-rule="nonzero"></path></g><g clip-path="url(#SvgjsClipPath10131679c9a9-7d1d-40ec-b0a7-1e1b9697fdc1)"><path d=" M -1.4539231693440662 0.5056252581068856 L -1.4539231693440662 0.49784477230102253 L -1.5437314134618598 0.49776160796342894 C -1.5469682129902451 0.4815742855863173 -1.5513310849646822 0.4656326663336513 -1.55678821446386 0.45005299963128326 L -1.4798057592991993 0.40595741974341865 L -1.4807298074946698 0.4044419807028471 L -1.480535757373621 0.4043218544374353 L -1.5135057969880141 0.347187954511486 L -1.5462078626257212 0.28997089024793965 L -1.546466596120453 0.29009101651335145 L -1.547316720460286 0.2885755774727765 L -1.6244747447820864 0.3330500171207806 C -1.6352226930412221 0.32060643142155804 -1.646836069718277 0.30893747357455426 -1.6592281974137373 0.29813023581394565 L -1.614374898005592 0.221221704504923 L -1.615853375118345 0.22029765630945347 L -1.6157240083709792 0.22009436570645152 L -1.6728117058871568 0.18710584512814576 L -1.7297792771379235 0.1538401100912016 L -1.729908643885289 0.15409884358593265 L -1.7313778805160875 0.1531747953904631 L -1.7758892820919097 0.23021269344685125 C -1.7912931655104054 0.22486245439507552 -1.8071960349544558 0.22886358308146348 -1.8235147260864675 0.22571257873490858 L -1.8231358663263246 0.14514481657182265 L -1.8907854347167319 0.14514481657182265 L -1.9528907139343152 0.1278466343526121 L -1.9528907139343152 0.12771726760524657 L -1.9528907139343152 0.12771726760524657 L -1.9528907139343152 0.21708196858921242 C -1.9700246544513575 0.2199082739416714 -1.986896402622261 0.22414243679093654 -2.0033345049250597 0.22974142886715765 L -2.0489362833715363 0.15254644261753947 L -2.1655419251579793 0.21893006498015488 L -2.121668116837032 0.29618049412150216 C -2.1345378118949685 0.30722247568816746 -2.1466141734090445 0.319156798687887 -2.157807641761889 0.33189495687644455 L -2.234845539818279 0.2871340622878449 L -2.302033084110951 0.4025754033479938 L -2.225198476657565 0.44729933600877525 C -2.230800915048922 0.46328376383234215 -2.2352447636129256 0.4796509614621014 -2.238495530190388 0.49627389036872194 L -2.327444409486394 0.4960243973559446 L -2.327823269246537 0.6296048044931835 L -2.238846668504667 0.6298542975059609 C -2.2357333006611713 0.6464725077692118 -2.231409559111041 0.6628409579232739 -2.2259099937680773 0.6788288518659076 L -2.303068018089878 0.7231831652485032 L -2.2365919909077183 0.8390033660687951 L -2.1593508022483254 0.7947044955779353 C -2.1483233134477673 0.8075214682841451 -2.1363876590264166 0.8195281498857493 -2.1236363394933844 0.8306314894178334 L -2.1683140697443912 0.9076231850644462 L -2.052808045310558 0.9746813626097538 L -2.008176517469325 0.8977820717826849 C -1.9921898318661893 0.903353621435375 -1.9758226434790096 0.9077665860024117 -1.95920196310938 0.9109867204959602 L -1.9593682917845643 0.9999263593100113 L -1.8257878846473252 1.0002220547325638 L -1.8256215559721403 0.9112454539906947 C -1.8090072491423577 0.9080864283857412 -1.792640527929203 0.9037415271127367 -1.7766470016121942 0.8982440958804213 L -1.7322926882296035 0.9753189558646277 L -1.6164724874093104 0.9087135619351029 L -1.6608268007919023 0.8315555376133029 C -1.6480302988823665 0.8204916253741135 -1.6360395858605845 0.8085287043732411 -1.6249460093617765 0.7957579105207704 L -1.547908111305387 0.8403894383620045 L -1.480970060025492 0.7247817686266684 L -1.557924793744289 0.6802241646410707 C -1.552159223923891 0.6646945956233331 -1.5474875286609138 0.6487805722357687 -1.5439439445468177 0.6325987206465151 L -1.45395089078993 0.6330607447442517 L -1.45395089078993 0.6441493230898963 L -1.4557989871808712 0.6441493230898963 L -1.455706582361324 0.5748457084295994 L -1.4554201274207283 0.5055420937692989 Z M -1.8916078376107008 0.7035286601308384 C -1.9686054800610866 0.7035235574009453 -2.0310231266134235 0.641105910848608 -2.0310282293433146 0.5641082683982228 C -2.0310078196603913 0.4871229471556041 -1.968593161558705 0.4247248358879996 -1.8916078376106842 0.4247248385934288 C -1.8146306086693298 0.4247299413231508 -1.752229510535627 0.48713103945685254 -1.7522244078059057 0.5641082683982228 C -1.7522195060246357 0.6010799539488633 -1.7669017500743045 0.6365393227031921 -1.793041213785997 0.6626857181209559 C -1.8191806774976897 0.6888321135387196 -1.8546361520601349 0.7035237589993686 -1.8916078376107819 0.7035286601308349 Z" fill="#ffffff" transform="matrix(1,0,0,1,0,0)" fill-rule="nonzero"></path></g><g clip-path="url(#SvgjsClipPath10131679c9a9-7d1d-40ec-b0a7-1e1b9697fdc1)"><path d=" M -0.8952621113264121 0.8364345120853851 L -0.9481084276253793 0.8363698287117023 C -0.9489356365745121 0.8254575792882797 -0.9505258069236633 0.8146166315293115 -0.9528672758320536 0.8039264965687266 L -0.8984593180827405 0.7739411326257063 L -0.8980804583225974 0.7729154391287324 L -0.8974243841038134 0.7728322747911421 L -0.9196015407951093 0.7340222505813739 L -0.9417140141127223 0.6951105810701081 L -0.9418248998961789 0.6951937454077017 L -0.9423700883315063 0.6941680519107278 L -0.9948190639064214 0.7244029088665289 C -1.0021271704750805 0.7159443521108737 -1.0100227286838928 0.7080117400504764 -1.0184469762646067 0.7006641107248824 L -0.9879533858140743 0.6483629828612502 L -0.9889513578651827 0.647762351534191 L -0.9888681935275905 0.6476145038229182 L -1.0276782177373582 0.6251878541188413 L -1.0664143180914885 0.6025856352576303 L -1.066497482429081 0.602751963932814 L -1.0675046949621438 0.6021513326057584 L -1.1013433398802797 0.6610963669948319 C -1.1107409529618553 0.657960340717851 -1.1203761076966021 0.6555870890064076 -1.1301551626150548 0.6539996768536182 L -1.129110988154173 0.5848439099045941 L -1.2229111204764003 0.5849270742421843 L -1.2229111204764003 0.5848439099045941 L -1.2229111204764003 0.5848439099045941 L -1.2229111204764003 0.6456093192387456 C -1.25063256634052 0.6477346300883265 -1.2443305576474102 0.6506176604581932 -1.254827745147957 0.6542214484205275 L -1.2846467804157953 0.6017262704358401 L -1.3633479652240317 0.6468752652665364 L -1.3332147535697334 0.6993981646970917 C -1.341919819310897 0.7069113197960962 -1.3500840284941524 0.7150292116050172 -1.3576465878579773 0.723691391756015 L -1.4099661966855268 0.693253244197212 L -1.4556141775417777 0.771797340812218 L -1.4033407711240022 0.8022077669251599 C -1.4071488563969967 0.8130647044670424 -1.410169085658026 0.824182112789852 -1.4123779624757051 0.8354735019620972 L -1.472866157351215 0.835307173286917 L -1.4731156503639922 0.9261411109016824 L -1.412608974524573 0.9263166800588198 C -1.4104905585103025 0.9376276781107024 -1.4075441578154146 0.9487677905912671 -1.4037935547397826 0.9596470984694468 L -1.4562702517605617 0.9897803101237436 L -1.4110658140381371 1.0685461783056622 L -1.3585336741256298 1.0384129666513657 C -1.351037323256763 1.0471335869546858 -1.3429182771326789 1.0552989570391564 -1.3342404470667066 1.062844800939608 L -1.3646231517337815 1.1152106121769303 L -1.286079055118775 1.1608123906234056 L -1.2557240718975637 1.1085112627597664 C -1.2448661824481202 1.11230212296919 -1.2337486843502863 1.1153038474556007 -1.2224583368606197 1.1174930112197479 L -1.2225692226440763 1.1779812060952506 L -1.1317352850293099 1.1781844966982562 L -1.1316151587638987 1.1176685803768818 C -1.1203064654060233 1.1155277755263553 -1.1091673027493678 1.1125723614253231 -1.0982847403532716 1.10882543914623 L -1.0681330477350643 1.1612466932752779 L -0.9893579390711902 1.1159683316972124 L -1.0195465936172168 1.0635008751583896 C -1.0108452822189111 1.0559730975371124 -1.0026900296001549 1.047836372565354 -0.9951424807748366 1.039152205207737 L -0.9427581885736047 1.0695071884289464 L -0.897230333982765 0.990879927476347 L -0.9517491775155342 0.9603401346160431 C -0.9496515881118157 0.9489928227756639 -0.9504277885960111 0.9392995572051756 -0.948256275336655 0.9281924978956201 L -0.8952805922903218 0.9285066742820836 L -0.8800892399567841 0.9278783215091599 L -0.880033797065056 0.9099425460350754 L -0.8797103801966413 0.8364067906395205 Z M -1.1764499772081352 0.97630768743378 C -1.2288136176814926 0.9763025850083643 -1.2712614601199625 0.9338547425698938 -1.27126656254538 0.8814911020965375 C -1.2712461563159763 0.8291382878485883 -1.2288027951848817 0.7867073358475501 -1.1764499772081238 0.7867022382051594 C -1.1241016468664995 0.7867073406302946 -1.0816662157418946 0.8291427717548996 -1.0816611133167544 0.8814911020965375 C -1.0816764171797064 0.9338337106271364 -1.1241073674344217 0.9762605245052868 -1.1764499772081927 0.9762707255059583 Z" fill="#ffce67" transform="matrix(1,0,0,1,0,0)" fill-rule="nonzero"></path></g><g clip-path="url(#SvgjsClipPath10131679c9a9-7d1d-40ec-b0a7-1e1b9697fdc1)"><path d=" M -2.3477457483408846 1.9869854012298194 L -0.8598063820662025 1.9869854012298194 C -0.8455781649598169 1.9869854012298194 -0.8340439183764803 1.998519647813156 -0.8340439183764803 2.0127478649195414 L -0.8340439183764803 2.021664930005833 C -0.8340439183764803 2.035893147112218 -0.8455781649598169 2.0474273936955556 -0.8598063820662025 2.0474273936955556 L -2.3477457483408846 2.0474273936955556 C -2.36197396544727 2.0474273936955556 -2.373508212030607 2.035893147112218 -2.373508212030607 2.021664930005833 L -2.373508212030607 2.0127478649195414 C -2.373508212030607 1.998519647813156 -2.36197396544727 1.9869854012298194 -2.3477457483408846 1.9869854012298194 Z" fill="#ffce67" transform="matrix(1,0,0,1,0,0)" fill-rule="nonzero"></path></g></g></g><defs><clipPath id="SvgjsClipPath1015"><path d=" M -2.8075428899251325 -0.04877593772964606 h 2.4075428899251325 v 2.096203331425201 h -2.4075428899251325 Z"></path></clipPath><clipPath id="SvgjsClipPath10131679c9a9-7d1d-40ec-b0a7-1e1b9697fdc1"><path d=" M -2.8075428899251325 -0.04877593772964627 L -0.3999999999999999 -0.04877593772964627 L -0.3999999999999999 2.0474273936955556 L -2.8075428899251325 2.0474273936955556 Z"></path></clipPath></defs></svg>